<svg xmlns="http://www.w3.org/2000/svg" viewBox="0 0 60 38" width="60" height="38">
  <rect width="60" height="38" rx="5" fill="#007BC1"/>
  <g transform="translate(0, 7) scale(2.5)">
    <path fill="white" d="M16.015 14.378c0-.32-.135-.496-.344-.622-.21-.12-.464-.135-.81-.135h-1.543v2.82h.675v-1.027h.72c.24 0 .39.024.478.125.12.13.104.38.104.55v.35h.66v-.555c-.002-.25-.017-.376-.108-.516-.06-.08-.18-.18-.33-.234l.02-.008c.18-.072.48-.297.48-.747zm-.87.407l-.028-.002c-.09.053-.195.058-.33.058h-.81v-.63h.824c.12 0 .24 0 .33.05.098.048.156.147.15.255 0 .12-.045.215-.134.27zM20.297 15.837H19v.6h1.304c.676 0 1.05-.278 1.05-.884 0-.28-.066-.448-.187-.582-.153-.133-.392-.193-.73-.207l-.376-.015c-.104 0-.18 0-.255-.03-.09-.03-.15-.105-.15-.21 0-.09.017-.166.09-.21.083-.046.177-.066.272-.06h1.23v-.602h-1.35c-.704 0-.958.437-.958.84 0 .9.776.855 1.407.87.104 0 .18.015.225.06.046.03.082.106.082.18 0 .077-.035.15-.08.18-.06.053-.15.07-.277.07zM0 0v10.096L.81 8.22h1.75l.225.464V8.22h2.043l.45 1.02.437-1.013h6.502c.295 0 .56.057.756.236v-.23h1.787v.23c.307-.17.686-.23 1.12-.23h2.606l.24.466v-.466h1.918l.254.465v-.466h1.858v3.948H20.87l-.36-.6v.585h-2.353l-.256-.63h-.583l-.27.614h-1.213c-.48 0-.84-.104-1.08-.24v.24h-2.89v-.884c0-.12-.03-.12-.105-.135h-.105v1.036H6.067v-.48l-.21.48H4.69l-.202-.48v.465H2.235l-.256-.624H1.4l-.256.624H0V24h23.786v-7.108c-.27.135-.613.18-.973.18H21.09v-.255c-.21.165-.57.255-.914.255H14.71v-.9c0-.12-.018-.12-.12-.12h-.075v1.022h-1.8v-1.066c-.298.136-.643.15-.928.136h-.214v.915h-2.18l-.54-.617-.57.6H4.742v-3.93h3.61l.518.602.554-.6h2.412c.28 0 .74.03.942.225v-.24h2.177c.202 0 .644.045.903.225v-.24h3.265v.24c.163-.164.508-.24.803-.24h1.89v.24c.194-.15.464-.24.84-.24h1.176V0H0z"/>
  </g>
</svg>
