<svg xmlns="http://www.w3.org/2000/svg" viewBox="0 0 750 471" width="60" height="38">
  <rect width="750" height="471" rx="40" fill="#fff" stroke="#e0e0e0" stroke-width="8"/>
  <g transform="translate(285,235)">
    <path transform="translate(-75,-110) scale(1.45)" d="M67.3 30.2c-7.1 8.4-18.6 15-30.1 14-1.4-11.5 4.2-23.8 10.8-31.3C55 4.4 67.5-1.5 77.7-2c1.3 11.9-3.5 23.5-10.4 32.2zm10.2 16.2c-16.6-1-30.7 9.4-38.6 9.4-8 0-20-8.9-33.1-8.7C-10.2 47.4-26.8 57.9-35.5 74c-17.7 30.4-4.6 75.7 12.5 100.5 8.4 12.2 18.3 25.8 31.5 25.3 12.6-.5 17.4-8.1 32.6-8.1 15.1 0 19.4 8.1 32.6 7.9 13.6-.2 22.2-12.3 30.6-24.5 9.6-14 13.5-27.5 13.8-28.2-.3-.1-26.4-10.2-26.7-40.3-.2-25.2 20.6-37.3 21.6-38-.2-.3-11.8-16.5-30-17.2z" fill="#000"/>
  </g>
  <text x="475" y="295" font-family="Arial, Helvetica, sans-serif" font-size="118" font-weight="400" fill="#000" text-anchor="middle">Pay</text>
</svg>
