<svg xmlns="http://www.w3.org/2000/svg" viewBox="0 0 165 104">
  <rect width="165" height="104" rx="10" fill="#fff" stroke="#d0d0d0" stroke-width="1.5"/>
  <!-- Apple logo leaf/stem -->
  <path d="M64.5 28.5c1.9-2.2 3.2-5.2 2.8-8.3-2.7.1-6 1.8-7.9 4-1.7 2-3.2 5-2.8 8 3 .2 6-.5 7.9-3.7z" fill="#000"/>
  <!-- Apple logo body -->
  <path d="M67.3 34.4c-4.6-.3-8.5 2.6-10.7 2.6-2.2 0-5.5-2.5-9-2.4-4.6.1-8.8 2.7-11.2 6.9-4.8 8.3-1.2 20.6 3.4 27.3 2.3 3.3 5 7 8.6 6.9 3.4-.1 4.7-2.2 8.8-2.2 4.1 0 5.3 2.2 8.9 2.1 3.7-.1 6.2-3.3 8.5-6.7 2.7-3.8 3.8-7.5 3.8-7.6-.1-.1-7.3-2.8-7.4-11.4-.1-7.2 5.9-10.6 6.1-10.9-3.4-4.9-8.6-5.5-9.8-5.5z" fill="#000"/>
  <!-- Pay -->
  <text x="113" y="64" font-family="-apple-system,'SF Pro Display','Helvetica Neue',Helvetica,Arial,sans-serif" font-size="32" font-weight="500" fill="#000" text-anchor="middle">Pay</text>
</svg>
