<svg xmlns="http://www.w3.org/2000/svg" viewBox="0 0 60 38" width="60" height="38">
  <rect width="60" height="38" rx="5" fill="#000"/>
  <path d="M22.5 13c.9-1 1.4-2.4 1.3-3.8-1.2.1-2.6.8-3.4 1.8-.8.9-1.4 2.3-1.3 3.7 1.3.1 2.6-.6 3.4-1.7z" fill="white"/>
  <path d="M26.2 14.7c-1.9-.1-3.5 1.1-4.4 1.1-.9 0-2.3-1-3.9-.9-2 0-3.9 1.2-4.9 3-2.1 3.6-.6 9 1.5 12 1 1.5 2.2 3.1 3.8 3-.8.1 2-1 3.8-.9 1.8 0 2.3.9 3.7.9 1.6 0 2.6-1.5 3.6-3 1.1-1.7 1.6-3.4 1.6-3.5-3.6-1.4-3.1-6.7.5-8.4-1.2-1.6-3-2-3.9-2z" fill="white"/>
  <text x="42" y="23" text-anchor="middle" fill="white" font-family="-apple-system,Helvetica,Arial,sans-serif" font-size="11" font-weight="500">Pay</text>
</svg>
