<svg xmlns="http://www.w3.org/2000/svg" viewBox="0 0 80 50">
  <rect width="80" height="50" rx="6" fill="#fff" stroke="#d0d0d0" stroke-width="1"/>
  <!-- Apple logo: leaf -->
  <path d="M28.8 12.4c1.2-1.5 2-3.5 1.7-5.5-1.7.1-3.8 1.2-5.1 2.7-1.1 1.3-2 3.3-1.7 5.2 1.9.1 3.9-.9 5.1-2.4z" fill="#111"/>
  <!-- Apple logo: body -->
  <path d="M30.7 16.8c-2.9-.2-5.4 1.7-6.8 1.7-1.4 0-3.6-1.6-5.9-1.5-3 .1-5.7 1.7-7.3 4.4-3.1 5.4-.8 13.4 2.3 17.8 1.5 2.1 3.2 4.5 5.4 4.4 2.1-.1 3-1.4 5.6-1.4 2.6 0 3.4 1.4 5.6 1.3 2.3-.1 4-2.1 5.4-4.2 1.7-2.4 2.4-4.8 2.5-4.9-.1-.1-4.7-1.8-4.8-7.3 0-4.5 3.7-6.6 3.9-6.8-2.1-3.2-5.5-3.5-5.9-3.5z" fill="#111"/>
  <text x="61" y="32" font-family="-apple-system,'Helvetica Neue',Arial,sans-serif" font-size="18" font-weight="500" fill="#111" text-anchor="middle">Pay</text>
</svg>
