<svg xmlns="http://www.w3.org/2000/svg" viewBox="0 0 750 471" width="60" height="38">
  <rect width="750" height="471" rx="40" fill="#fff" stroke="#e0e0e0" stroke-width="8"/>
  <path d="M278.2 334.4l33.9-210.7h54.2L332.3 334.4H278.2z" fill="#00579F"/>
  <path d="M524.3 128.8c-10.7-4.2-27.6-8.7-48.6-8.7-53.6 0-91.4 28.6-91.7 69.6-.3 30.3 27 47.2 47.6 57.3 21.1 10.3 28.2 16.9 28.1 26.1-.1 14.1-16.9 20.6-32.5 20.6-21.7 0-33.2-3.2-51-11.1l-7-3.3-7.6 47.1c12.7 5.9 36.1 11 60.5 11.2 57.1 0 94.2-28.3 94.6-72.1.2-24-14.3-42.3-45.6-57.4-19-9.8-30.6-16.3-30.5-26.2 0-8.8 9.8-18.2 31.1-18.2 17.7-.3 30.6 3.8 40.6 8l4.9 2.4 7.1-44.3z" fill="#00579F"/>
  <path d="M635.8 123.7h-41.9c-13 0-22.7 3.7-28.4 17.4l-80.6 192.5h57l11.4-31.4 69.5.1c1.6 7.3 6.6 31.3 6.6 31.3h50.4L635.8 123.7zm-66.9 134.5c4.5-12.1 21.6-58.8 21.6-58.8-.3.5 4.5-12.2 7.2-20.1l3.7 18.2s10.4 50.2 12.6 60.7h-45.1z" fill="#00579F"/>
  <path d="M232.7 123.7l-53.1 143.7-5.7-29.1c-9.9-33.6-40.7-70-75.2-88.1l48.6 184.2 57.4-.1 85.4-210.6-57.4-.1z" fill="#00579F"/>
  <path d="M131.4 123.7H44.2l-.7 4.2c68.1 17.4 113.2 59.4 131.9 109.9l-19-96.4c-3.3-13.3-12.8-17.3-25-17.7z" fill="#FAA61A"/>
</svg>
