<svg xmlns="http://www.w3.org/2000/svg" viewBox="0 0 66 36" role="img" aria-label="Google Pay">
  <rect width="66" height="36" rx="5" fill="#fff" stroke="#e0e0e0" stroke-width="1"/>
  <!-- Google G - 4 colori ufficiali -->
  <path fill="#4285F4" d="M22 17.5h-8v2.2h5.6c-.3 2.2-2.2 3.8-5.6 3.8-3.4 0-6.2-2.8-6.2-6.2s2.8-6.2 6.2-6.2c1.7 0 3.2.6 4.3 1.7l1.6-1.6C18.3 9.7 16.3 9 14 9c-4.7 0-8.5 3.8-8.5 8.5s3.8 8.5 8.5 8.5c4.9 0 8.1-3.4 8.1-8.2 0-.5 0-.9-.1-1.3z"/>
  <path fill="#EA4335" d="M6.5 14.4l2 1.5c.7-2 2.5-3.4 4.7-3.4 1.7 0 3.2.6 4.3 1.7l1.6-1.6C17.5 10.9 15.9 10 14 10c-3.3 0-6.1 2.2-7.5 4.4z"/>
  <path fill="#34A853" d="M14 26c2.1 0 3.9-.7 5.2-1.9l-2.4-1.9c-.7.5-1.7.8-2.8.8-2.2 0-4.1-1.5-4.7-3.5l-2.4 1.9C8.4 24 11 26 14 26z"/>
  <path fill="#FBBC05" d="M22 17.5c0-.5 0-.9-.1-1.3H14v2.2h5.6c-.2.8-.7 1.5-1.3 2l2.4 1.9c1.4-1.3 2.3-3.3 2.3-4.8z"/>
  <text x="47" y="24" text-anchor="middle" font-family="Arial, Roboto, sans-serif" font-size="12" font-weight="500" fill="#5f6368">Pay</text>
</svg>
