<svg xmlns="http://www.w3.org/2000/svg" viewBox="0 0 66 36" role="img" aria-label="Satispay">
  <rect width="66" height="36" rx="5" fill="#E91C23"/>
  <!-- S stilizzato -->
  <path fill="#fff" d="M14 10.5c-2 .4-3.4 2.1-3.4 4.1 0 1.3.6 2.4 1.6 3.2l.7.5c.8.5 1.3.9 1.3 1.6 0 .7-.6 1.3-1.4 1.3-.9 0-1.6-.5-2.2-1.1l-1.1 1.4c.8.9 2 1.5 3.3 1.5 2.1 0 3.6-1.4 3.6-3.2 0-1.5-.7-2.5-2.1-3.3l-.7-.5c-.7-.4-.9-.8-.9-1.4 0-.6.5-1.1 1.3-1.1.7 0 1.3.4 1.7.8l1-1.4c-.8-.8-1.8-1.4-2.7-1.4z"/>
  <text x="41" y="23.5" text-anchor="middle" font-family="Arial, Helvetica, sans-serif" font-size="9.5" font-weight="700" fill="#fff" letter-spacing="0.3">Satispay</text>
</svg>
