<svg xmlns="http://www.w3.org/2000/svg" viewBox="0 0 60 36" role="img" aria-label="Apple Pay">
  <rect width="60" height="36" rx="5" fill="#000"/>
  <path fill="#fff" d="M18.9 10.5c.8-1 1.3-2.3 1.1-3.6-1.1.1-2.4.7-3.2 1.7-.7.8-1.3 2.1-1.1 3.4 1.2.1 2.4-.5 3.2-1.5zm1.1 1.9c-1.8-.1-3.4 1-4.2 1-.9 0-2.2-1-3.6-1-1.8.1-3.5 1.1-4.4 2.7-1.9 3.2-.5 8 1.4 10.6.9 1.3 1.9 2.7 3.3 2.7 1.3-.1 1.8-.9 3.4-.9 1.6 0 2.1.9 3.5.9 1.4-.1 2.4-1.4 3.3-2.7.6-.9.9-1.4 1.5-2.5-3.8-1-4.4-5.7-.5-7.3-.9-1.1-2.1-1.8-3.7-1.5z"/>
  <text x="43" y="23.5" text-anchor="middle" font-family="-apple-system, Helvetica Neue, sans-serif" font-size="10" font-weight="500" fill="#fff">Pay</text>
</svg>
